<?xml version="1.0" encoding="utf-8"?>
<!-- Generator: Adobe Illustrator 20.1.0, SVG Export Plug-In . SVG Version: 6.00 Build 0)  -->
<svg version="1.1" id="Laag_1" xmlns="http://www.w3.org/2000/svg" xmlns:xlink="http://www.w3.org/1999/xlink" x="0px" y="0px"
	 viewBox="0 0 2100 2100" enable-background="new 0 0 2100 2100" xml:space="preserve">
<path fill="#FFFFFF" d="M2100,690.1c-0.6-323.4-35-364.2-98.9-466C1894,53.2,1700.5,0,1602.4,0c0.2,0-1105,0-1104.8,0
	C399.5,0,206,53.2,98.9,224.1C35,326,0.6,366.7,0,690.1h0v732.7h0.1c1.5,311.6,35.8,352.7,98.8,453.1
	C206.1,2046.8,399.5,2100,497.6,2100c-0.2,0,1105,0,1104.8,0c98.1,0,291.6-53.2,398.7-224.1c63.1-100.4,97.3-141.5,98.8-453.1h0.1
	L2100,690.1L2100,690.1z"/>
<g id="Laag_4">
	<path fill="#AE1C28" d="M1602.4,0c98.1,0,291.6,53.2,398.7,224c64.5,102.7,98.9,143.3,98.9,474.8c0,1.5-2100,1.5-2100,0
		c0-331.5,34.4-372,98.9-474.8C206,53.2,399.5,0,497.6,0C497.4,0,1602.6,0,1602.4,0z"/>
</g>
<g id="Laag_3">
	<path fill="#21468B" d="M1602.4,2099.1c98.1,0,291.6-53.2,398.7-224c64.5-102.7,98.9-143.3,98.9-474.8c0-1.5-2100-1.5-2100,0
		c0,331.5,34.4,372.1,98.9,474.8c107.2,170.8,300.6,224,398.7,224C497.4,2099.1,1602.6,2099.1,1602.4,2099.1z"/>
</g>
<g id="Laag_2">
	<path fill="#FF7F00" d="M1752.5,872.2c0.3,25.7,3.9,51,14.7,74.7c25.9,57.3,69.9,91.5,131.5,103.2c3.9,0.7,7.7,1.5,12.6,3.1
		c-19.7,2-37.6,6.4-54.5,14.3c-55,25.7-88.9,68.1-100.6,127.8c-2.9,14.7-3.8,29.6-3.8,44.6c0,49.9,0.2,284.7,0,340.6
		c-0.4,85.2-63,153.2-138.6,167.5c-13.1,2.5-26.2,3.8-39.6,3.8c-53.6-0.2-107.3-0.2-160.9,0.1c-6.6,0-10.9-2-15.1-7.2
		C1309,1633,703.3,878.5,703.3,878.5s-0.9,752.4-0.9,861c0,13.9,1.1,12.1-12.4,12.2c-53.3,0.1-106.6,0.2-159.9,0
		c-43.5-0.2-82.4-13.4-115.5-42.1c-33.5-29.2-53-65.9-58.8-110.1c-1.3-10-1.4-19.9-1.4-29.8c0-52.3,0.3-284.8-0.1-338.8
		c-0.3-50.1-16.7-93.9-53.2-129.1c-28.7-27.7-63-44-102.8-48c-0.5-0.1-1-0.4-2.4-1c15-3.2,29.5-5.1,43.1-10.4
		c59.6-23.3,97.1-65.7,111.2-128.4c3.3-14.6,4.3-29.6,4.3-44.5c0-51.6-0.3-298.9-0.1-339.8c0.3-50.4,17.7-93.8,54.5-128.7
		c25.8-24.5,56.5-39.6,91.8-45c9.9-1.5,19.8-2,29.8-2c54.3,0.1,108.6,0.1,163-0.1c7,0,11.7,2.1,16.1,7.5
		c88.5,110.9,694.8,864.9,694.8,864.9s-0.1-751.6-0.1-858.6c0-14.5-0.8-13.7,13.4-13.7c54.3,0,108.6,0,162.9,0
		c79.8,0,149.3,55.3,167.2,133.1c3,13,4.6,26.1,4.5,39.6C1752.1,580.8,1751.9,827.6,1752.5,872.2z"/>
</g>
</svg>
